<svg xmlns="http://www.w3.org/2000/svg" viewBox="0 0 509.99 488.8"><defs><style>.cls-1{fill:#585858;}.cls-2{fill:#d7d7d7;}</style></defs><g id="Camada_2" data-name="Camada 2"><g id="Camada_1-2" data-name="Camada 1"><path d="M510,269.84c-1.48.92-1.23,2.64-1.71,4-5.18,14.25-15.35,22.43-30.37,23.32C464,298,453.14,292,446.26,279.61Q427.79,246.34,409.43,213a11.14,11.14,0,0,0-3.55-4.13c-.47,4.51-.83,9-1.42,13.53-4.36,33.37,6.44,63.13,21.92,91.74,10.14,18.73,21.89,36.37,36.35,52.1a99.8,99.8,0,0,0,19.57,16.81c8.14,5.19,8.76,12.84,1.31,19.21-20.54,17.57-44.53,28.5-70.37,35.72-9.53,2.66-9.84,2.59-9.48,12.44.42,11.81-1.7,22.48-11.22,30.51-11.3,9.53-26.3,10.37-38.67,2-2.42-1.64-3.89-1.74-6.39,0-10.49,7.11-21.71,7.93-32.89,2-11-5.85-16.69-15.29-16.94-27.84-.08-4.15-.25-8.32.05-12.44.24-3.33-1.06-4.58-4.17-5.34a196.68,196.68,0,0,1-62.27-26.72A94.33,94.33,0,0,1,216,400.6c-4.87-4.89-4.65-12.25,1-16.05,23.44-15.69,39-38.17,53-61.78,12.08-20.29,22.07-41.6,26.22-65.13,2.82-16,.91-32.08-.79-48.09a10.44,10.44,0,0,0-.93-2.15c-.78,1.17-1.35,1.95-1.83,2.77-13.4,22.91-27,45.72-40.12,68.76-13.91,24.33-43.75,25-58.37,1.05-13.74-22.52-27.33-45.13-41-67.69-.93-1.53-1.92-3-3.19-5-1.28,2.3-.83,4.28-.83,6.13q-.19,119-.34,238c0,4.14.18,8.31-.81,12.38-5.36,22.12-30.19,31.77-49.15,19-2.16-1.46-3.48-2-6-.27-10.58,7.37-22,8.27-33.35,2.18s-16.86-16-16.85-28.93q0-66,0-131.93c0-6.24,0-6.24-6.25-5.39C17.71,321,.32,306.5.21,287.53,0,244.22-.15,200.9.29,157.59c.18-17.92,8.88-31.9,23.47-42.27,5-3.54,10-4.23,15.26-.95,6.8,3.86,7.93,10.84,2.74,16.88a11.64,11.64,0,0,1-2.61,2.29C27.39,141,23.41,152.06,23.45,165.4c.12,38,0,76,.05,114,0,3.15-.13,6.34,1.19,9.31,1.46,3.29,3.84,5.49,7.64,5.3,3.6-.17,5.68-2.45,6.76-5.7A35.13,35.13,0,0,0,40.48,277q0-36.59,0-73.17c0-4.27.56-8.34,3.94-11.36,3.75-3.34,8.08-4.53,12.92-2.76A12.7,12.7,0,0,1,66,200.28a60.69,60.69,0,0,1,.29,9.44q0,119.22,0,238.42a41.08,41.08,0,0,0,.39,8.44c1,4.52,4.2,7.38,8.18,7.29s6.69-3,7.26-8a64.63,64.63,0,0,0,.15-7q0-57,0-114c0-3.49,0-7,1.39-10.28a12.87,12.87,0,0,1,24-.13c1.47,3.47,1.44,7.12,1.44,10.77q0,57.24,0,114.48a42.61,42.61,0,0,0,.26,7c.71,4.38,3.29,7,7,7.13s6.85-2.28,8-6.18c.88-2.91.66-5.92.66-8.9q0-118.21,0-236.43c0-3-.08-6,.08-9a23.63,23.63,0,0,1,17.31-21.89c10-2.75,20,.62,25.71,9.53,14.12,21.89,27.17,44.44,40.75,66.66a114.27,114.27,0,0,0,6.1,9.69c3.55,4.69,8.16,6,12,3.57,3.68-2.34,4.38-6.74,1.51-12-6.46-11.78-13.3-23.35-19.9-35.05-14.16-25.15-28.6-50.14-42.86-75.24-3.26-5.73-7.15-10.75-12.66-14.44a19.48,19.48,0,0,1-2.73-2.16c-6-5.91-5.21-13.48,1.94-17.7,5.31-3.25,10.28-2.59,15.28.92A57.57,57.57,0,0,1,185,134.24q18.66,32.85,37.45,65.68c2.07-.82,2.48-2.75,3.35-4.22q18.75-31.66,37.39-63.4c6.79-11.49,16.73-19.06,29.27-23.38,4.44-1.53,8.44-1,12.15,1.94a73.55,73.55,0,0,0,92,0c3.72-3,7.73-3.46,12.15-1.94,12.36,4.24,22.23,11.55,28.95,23q33.71,57.2,67.56,114.31c2,3.4,2.84,7.26,4.68,10.7Z"/><path class="cls-1" d="M152.41,114.38c-5.55,8.69-4.77,12.84,3.58,18.71a34.57,34.57,0,0,1,10.33,11.29q32.43,56.87,64.85,113.72c3.89,6.82,3,12.4-2.37,15.61-5.86,3.51-11.86,1.79-16-4.9Q190.7,232.48,168.71,196c-4.46-7.42-10.09-12.68-19.28-12.84a21,21,0,0,0-21.78,20.06c-.13,2-.06,4-.06,6q0,121,0,242c0,2,.09,4-.09,6a10.5,10.5,0,0,1-11,9.92c-5.79-.15-9.77-4.05-9.82-10.27-.15-18.92-.13-37.84-.14-56.75q0-33.12,0-66.22c0-2.83,0-5.66-1.05-8.34a10,10,0,0,0-9.59-6.7c-4.74-.06-8.22,2.32-10,6.83-1.13,2.85-1,5.86-1,8.85q0,57.26,0,114.51c0,2.66,0,5.31-.12,8-.29,6.18-4.15,10.05-10,10.13A10.5,10.5,0,0,1,64,457.49a56.54,56.54,0,0,1-.12-6q0-122.22,0-244.45a47.94,47.94,0,0,0-.21-6.46,10.54,10.54,0,0,0-11-9.35,10.2,10.2,0,0,0-9.67,10.16c-.22,11.28-.11,22.57-.12,33.86,0,14.6,0,29.2,0,43.81a70.14,70.14,0,0,1-.64,8.92c-.7,5.32-4.41,8.9-9.41,9.33a10.59,10.59,0,0,1-10.81-7.82,24.43,24.43,0,0,1-.71-6.39q-.06-60.49,0-121c0-12.7,4.74-22.79,15.55-29.94,7.08-4.68,7.61-10,2.31-17.84l24.68,0c2.74.88,2.42,3.29,2.51,5.35.23,5.12,0,10.25.14,15.37.32,9.13,6.05,12.68,14.43,9,3.78-1.67,7.44-3.6,11.13-5.45a7.82,7.82,0,0,1,7.55,0c4,2,7.9,4.19,12.07,5.78,7.89,3,13.15-.38,13.53-8.76.24-5.28-.07-10.58.17-15.86.09-2.06-.24-4.47,2.51-5.35Z"/><path d="M403.66,53A53,53,0,1,1,350.47,0,53.16,53.16,0,0,1,403.66,53Z"/><path d="M42.73,53a53,53,0,1,1,53.08,53.2C66.65,106.36,42.72,82.38,42.73,53Z"/><path d="M127.74,114.33c0,7.44,0,14.88-.18,22.32-.17,9.45-7.19,14.07-15.92,10.53a5.13,5.13,0,0,1-1.34-.62c-10-7.69-19.36-6.45-29.75,0C72,152,64,146.38,63.86,136.15c-.09-7.27-.11-14.55-.16-21.82,5.12-8.79,9.89-10.74,18.57-5.35,9.38,5.82,17.51,5.9,26.9,0C117.75,103.57,122.64,105.55,127.74,114.33Z"/><path class="cls-2" d="M247.86,244.37c-4.17-7.28-7.81-13.78-11.62-20.19-1.15-1.92-.61-3.31.38-5q22.77-38.55,45.5-77.12a26.61,26.61,0,0,1,4-5.05c6.48-6.58,7.9-6.59,15.82-2.2q51,28.35,100.83-2.22c2.72-1.67,4.67-1.62,7.11,0a30.81,30.81,0,0,1,9.6,9.91q33.3,56.58,66.76,113.08c3,5.07,3.44,10,.18,14.95-2.95,4.45-7.41,5.87-12.59,5.29-4.6-.51-7.25-3.38-9.38-7.25q-24.42-44.48-49-88.86c-.56-1-1.1-2-1.69-3-5.31-9-14.59-9.17-20.1-.17-4.77,7.79-6.47,16.61-8.17,25.41-8.56,44.28.74,85.21,22.73,123.92,13.6,23.93,28.94,46.47,49.44,65.08,3,2.76,1.16,3.52-.95,4.86a179,179,0,0,1-68.4,25.76c-42.91,7-84.58,3-124.43-15.3a212.21,212.21,0,0,1-19.21-10.43c-3.73-2.21-2.93-3.25-.3-5.86,35.16-34.84,60.24-75.8,71.61-124.13,6.29-26.76,3-53.77-4.25-80.17a36.94,36.94,0,0,0-3.83-8.6c-5.63-9.62-15-9.64-20.62,0-9.94,16.85-19.77,33.77-29.65,50.65C254.57,233,251.46,238.24,247.86,244.37Z"/><path class="cls-1" d="M350.77,84.73a31.6,31.6,0,0,1-32-31.29A32.31,32.31,0,0,1,351.06,21.1c17,.07,31.47,14.88,31.45,32.12A31.57,31.57,0,0,1,350.77,84.73Z"/><path class="cls-1" d="M95.59,84.73A31.58,31.58,0,0,1,63.87,53.2c0-17.43,14.7-32.22,32-32.11S127.7,36,127.57,53.45A31.59,31.59,0,0,1,95.59,84.73Z"/></g></g></svg>