<svg xmlns="http://www.w3.org/2000/svg" viewBox="0 0 234.8 360.71"><defs><style>.cls-1{fill:#ffb600;}.cls-2{fill:#cfffff;}</style></defs><g id="Camada_2" data-name="Camada 2"><g id="Camada_1-2" data-name="Camada 1"><path class="cls-1" d="M176,141.63a58.32,58.32,0,0,1-6.68,23.65,93.75,93.75,0,1,1-103.82,0,58.31,58.31,0,0,1-6.67-23.65,117.4,117.4,0,1,0,117.17,0Z"/><path class="cls-1" d="M144.69,109l-7.48,6.88a29.52,29.52,0,1,1-39.62,0L90.11,109a39.66,39.66,0,1,0,54.58,0Z"/><polygon class="cls-2" points="149.03 33.61 178.31 31.1 161.61 5.3 149.03 33.61 149.03 33.61"/><polygon class="cls-2" points="95.16 40.54 95.36 41.01 94.89 40.97 117.33 110.38 138.9 40.95 138.21 41.01 138.42 40.54 95.16 40.54 95.16 40.54"/><polygon class="cls-2" points="77.09 0 91.11 33.78 142.63 33.78 157.64 0 77.09 0 77.09 0"/><polygon class="cls-2" points="87.58 40.64 55.85 37.83 74.42 82.38 112.34 117.22 87.58 40.64 87.58 40.64"/><polygon class="cls-2" points="146.17 40.64 122.34 117.32 160.4 82.38 178.93 37.83 146.17 40.64 146.17 40.64"/><polygon class="cls-2" points="84.85 33.61 73.12 5.36 56.45 31.11 84.85 33.61 84.85 33.61"/></g></g></svg>