<svg xmlns="http://www.w3.org/2000/svg" width="450" height="326.216" viewBox="0 0 450 326.216"><defs><style>.a{fill:#fff;}.b{fill:#c38200;}.c{fill:#ffb600;}.d{fill:#ffe597;}</style></defs><path class="a" d="M285.161,0c.049.707.635.8,1.134.963a33.672,33.672,0,0,1,8.017,4.192c5.3,3.428,10.977,5.668,17.448,5.354,5.673-.275,10.72-2.348,15.515-5.208a28.775,28.775,0,0,1,6.739-3.174c7.933-2.271,14.367.168,19.772,7.519,2.666,3.625,5.064,7.445,8.745,10.224a26.768,26.768,0,0,0,14.629,5.657,56.45,56.45,0,0,0,11.221-.62c10.3-1.352,17.78,3.6,20.4,13.627.883,3.378,1.367,6.857,2.709,10.119C415.17,57.6,421.878,63,431.1,65.455c4.1,1.094,8.2,2.153,11.644,4.844,4.831,3.78,6.473,8.861,6.117,14.783a69.853,69.853,0,0,1-1.176,7.765c-.222,1.278-.708,1.74-2.417,1.8a24.808,24.808,0,0,0-6.615,1.213c-1.477.465-2.109.048-2.669-1.032a141.953,141.953,0,0,0-29.6-38.788,148.176,148.176,0,0,0-29.709-21.417,144.3,144.3,0,0,0-51.3-16.705,147.926,147.926,0,0,0-29.185-.641,145.012,145.012,0,0,0-86.493,36.5A147.7,147.7,0,0,0,174.846,100.3a146,146,0,0,0-12.78,42.736c-.19,1.308-.621,1.829-1.947,2-2.6.331-5.17.848-7.742,1.346-.749.145-1.3.118-1.693-.629-1.455-2.8-3.3-5.386-4.393-8.39-2.931-8.085-.734-15.265,6.4-20.658,3-2.266,6.2-4.241,8.869-6.969,6.643-6.8,8.638-14.984,7.467-24.136a39.535,39.535,0,0,1-.454-9.835c.962-7.9,5.93-12.188,13.144-14.365,3.853-1.163,7.88-1.633,11.62-3.3,8.59-3.829,13.545-10.559,15.893-19.419.969-3.654,1.9-7.3,4.082-10.463,3.972-5.757,9.649-7.667,16.339-7.016,3.2.311,6.361,1.148,9.566,1.369,10.434.719,18.753-3.389,25-11.649,3.284-4.344,6.622-8.505,12.059-10.28.184-.06.27-.422.4-.643Z" transform="translate(-86.445)"/><path class="b" d="M1016.156,356.251l-50.223,8.882c-5.221.923-10.444,1.843-16.088,2.839,2.71-3.289,5.166-6.286,7.641-9.269q8.247-9.94,16.527-19.851a3.22,3.22,0,0,0,.823-2.917c-3.171-17.727-6.29-35.463-9.464-53.189-.234-1.307.137-1.771,1.41-1.99q16.888-2.914,33.755-5.945c1.946-.353,1.405.561,1.092,1.583-4.19,13.682-8.346,27.374-12.587,41.04a3.776,3.776,0,0,0,.7,3.849c8.428,11.083,16.784,22.221,25.173,33.333.348.461.554,1.095,1.237,1.232Z" transform="translate(-566.156 -163.755)"/><path class="b" d="M0,455.239c11.716-2.053,23.44-4.061,35.138-6.212,1.653-.3,2.048.141,2.3,1.612,2.973,17.083,6.029,34.151,8.961,51.241a6.173,6.173,0,0,0,3.293,4.982c9.606,5.413,19.077,11.066,28.6,16.635.746.437,1.483.891,2.748,1.653L14.873,536.822c1.189-3.958,2.283-7.656,3.412-11.344q4.749-15.516,9.526-31.023a2.66,2.66,0,0,0-.309-2.769Q14.127,474.09.871,456.405C.637,456.1.465,455.7,0,455.642Z" transform="translate(0 -267.589)"/><path class="c" d="M457.244,305.478c.244,1.276-.884.979-1.43,1.08-5.615,1.041-11.246,2-16.871,2.993q-32.754,5.782-65.506,11.569-31.463,5.546-62.93,11.068-32.557,5.73-65.113,11.47-32.654,5.761-65.306,11.537-34.933,6.168-69.867,12.326c-2.978.525-5.989.9-8.93,1.591-1.594.372-2.066,0-2.332-1.562-1.736-10.2-3.564-20.383-5.361-30.572-2.765-15.681-5.5-31.367-8.334-47.035-.313-1.73.04-2.29,1.775-2.593q46.76-8.17,93.5-16.448,37.223-6.554,74.451-13.085,34.836-6.141,69.664-12.322,34.938-6.163,69.882-12.292c15.551-2.737,31.1-5.459,46.642-8.268,1.516-.274,1.931.035,2.192,1.529q6.753,38.619,13.615,77.219C457.092,304.277,457.159,304.879,457.244,305.478Zm-197.112,2.8c.377-16.2-10.477-28.2-27.839-27.2-9.264.536-18.247,3.23-27.4,4.725-1.043.17-.99.7-.823,1.572q4.573,23.958,9.047,47.935c.214,1.149.648,1.424,1.746,1.209,7.717-1.5,15.476-2.8,23.155-4.474C251.292,329.159,259.112,320.621,260.132,308.279Zm86.935,2.842a3.252,3.252,0,0,0-.246-.662q-15.588-22.445-31.172-44.893a1.553,1.553,0,0,0-1.859-.706c-2.831.578-5.664,1.159-8.518,1.6a2.583,2.583,0,0,0-2.435,2.327c-1.639,7.271-3.381,14.52-5.1,21.774q-3.477,14.7-6.985,29.4c-.348,1.447-.108,1.953,1.491,1.6,2.885-.639,5.793-1.182,8.708-1.664a1.973,1.973,0,0,0,1.881-1.9c.505-2.91,1.233-5.782,1.754-8.69a1.9,1.9,0,0,1,1.807-1.741c6.8-1.249,13.61-2.5,20.393-3.858a1.973,1.973,0,0,1,2.422,1.1c1.567,2.507,3.251,4.942,4.82,7.448a1.764,1.764,0,0,0,2.13.963C339.775,312.467,343.4,311.815,347.067,311.121Zm14.092-2.307c.538,0,1.078.025,1.615,0,7.455-.4,14.6-1.816,20.349-7.026,4.365-3.953,5.776-8.932,4.384-14.663-1.271-5.233-4.94-8-9.889-9.269a48.971,48.971,0,0,0-8.595-1.069c-3.814-.283-7.683-.093-11.416-1.136-3.418-.956-4.5-4.258-2.377-7.128a9,9,0,0,1,4.9-3,26.235,26.235,0,0,1,15.882.234c1.241.385,1.69.082,1.9-1.135a64.508,64.508,0,0,1,1.312-6.521c.4-1.453-.2-1.861-1.394-2.2a35.284,35.284,0,0,0-15.593-.778c-5.991.986-11.68,2.783-15.968,7.423-4.029,4.361-4.864,9.484-3.017,15.014,1.783,5.337,6.017,7.671,11.235,8.565a86.911,86.911,0,0,0,10.039.911c2.874.155,5.8.095,8.554,1.15,3.641,1.394,4.286,5.076,1.337,7.636a12.079,12.079,0,0,1-5.274,2.4A29.182,29.182,0,0,1,351.125,297c-1.137-.452-1.516-.211-1.756.885-.488,2.231-.962,4.472-1.607,6.66-.406,1.378.088,1.917,1.312,2.356A34.03,34.03,0,0,0,361.159,308.813ZM176.8,298.845c-.386-1.979-.891-3.943-1.119-5.937-.176-1.543-.84-1.625-2.139-1.36-4.67.951-9.363,1.791-14.046,2.678q-11.679,2.212-23.356,4.426c-.738.139-1.535.145-1.313,1.282,1.042,5.337,2.09,10.674,3.082,16.021.17.917.607.8,1.267.674,2.7-.53,5.41-1.039,8.124-1.5,1.02-.174,1.332-.586,1.075-1.637-.431-1.759-.69-3.56-1.067-5.333-.24-1.132.011-1.662,1.3-1.877,4.372-.726,8.744-1.5,13.063-2.479,2.053-.468,1.859.21,1.5,1.729-3.19,13.525-6.3,27.069-9.479,40.6-.319,1.355-.425,1.936,1.344,1.512,3-.72,6.049-1.268,9.1-1.7a2.546,2.546,0,0,0,2.483-2.293c2.49-11.139,5.058-22.26,7.6-33.388C175.089,306.456,175.94,302.656,176.8,298.845Zm97.763-26.181q-5.047.944-10.094,1.887c-.821.152-.82.622-.673,1.329.519,2.5.957,5.01,1.432,7.516q3.84,20.277,7.67,40.556c.168.893.325,1.543,1.489,1.3,3.154-.649,6.315-1.272,9.486-1.83.968-.17,1.127-.5.933-1.455-.921-4.538-1.741-9.1-2.6-13.646q-3.249-17.211-6.5-34.423C275.584,273.261,275.612,272.466,274.564,272.664Z" transform="translate(-50.761 -134.019)"/><path class="a" d="M193.938,506.616c-.094-2.593.911-5.57,1.268-8.635a1.264,1.264,0,0,1,1.171-1.182q4.363-.782,8.724-1.584c1.181-.216,1.647.549,2.122,1.434A146.633,146.633,0,0,0,309.249,571.3a142.614,142.614,0,0,0,35.342,2.132,145.316,145.316,0,0,0,59.582-16.591,142.479,142.479,0,0,0,39.386-30.465,146.152,146.152,0,0,0,34.5-65.077,98.841,98.841,0,0,0,2.292-12.48,2.477,2.477,0,0,1,2.475-2.576c2.531-.291,5.033-.841,7.54-1.319.692-.132,1.333-.3,1.754.475,2.073,3.833,4.6,7.443,5.465,11.849,1.335,6.815-1.306,12.114-6.3,16.427-2.436,2.1-5.228,3.789-7.7,5.856-7.837,6.556-10.932,14.985-9.879,25.114.372,3.579,1.182,7.1.646,10.814-.987,6.839-4.724,11.218-10.995,13.7a73.22,73.22,0,0,1-8.766,2.322c-10.95,2.845-17.81,9.822-20.807,20.654-1.023,3.7-1.9,7.43-4.07,10.69-3.99,5.981-9.775,7.9-16.616,7.28-3.738-.339-7.378-1.385-11.171-1.472-9.668-.223-17.111,4.008-22.955,11.364-2.6,3.273-5.009,6.7-8.66,8.911-6.817,4.122-13.33,2.562-19.55-1.376-3.769-2.386-7.53-4.713-11.886-5.864-7.816-2.066-15.069-.492-21.878,3.55a33.324,33.324,0,0,1-9.7,4.375c-7.98,1.763-13.707-1.876-18.206-7.962-2.6-3.52-5.016-7.164-8.452-9.964-6.767-5.518-14.576-6.8-22.968-5.589-3.746.542-7.468.944-11.2-.036-7.23-1.9-10.805-7.085-12.526-13.922-.885-3.516-1.491-7.1-2.98-10.455-3.98-8.958-11.148-13.88-20.39-16.175a34.469,34.469,0,0,1-7.6-2.656C196.593,519.552,193.958,514.1,193.938,506.616Z" transform="translate(-115.593 -265.131)"/><path class="a" d="M400.739,150.57c24.262.447,45.692,7.867,64.377,22.989a100.441,100.441,0,0,1,17.772,18.627c1.238,1.682,1.151,1.675-.766,2.3-2.4.776-3.791.038-5.359-1.954A95.94,95.94,0,0,0,427.937,159.5a92.538,92.538,0,0,0-33.721-3.569,94.706,94.706,0,0,0-52.878,20.292,96.437,96.437,0,0,0-32.4,46.239,4.538,4.538,0,0,1-5.212,3.4c-1.24-.121-.7-.909-.555-1.476a86.529,86.529,0,0,1,4.3-12.166,101.37,101.37,0,0,1,76.539-60.064A135.672,135.672,0,0,1,400.739,150.57Z" transform="translate(-180.563 -89.747)"/><path class="a" d="M424.137,544.722c-24.781-.357-46.588-8.29-65.526-23.953a98.784,98.784,0,0,1-16.3-17.274c-1.014-1.363-.457-1.61.771-1.9,2.274-.54,3.852-.305,5.618,1.853,15.845,19.373,36.153,31.354,60.937,35.085a94.2,94.2,0,0,0,59.618-10.125c22.731-12.126,38.136-30.634,46.559-54.966a4.6,4.6,0,0,1,5.213-3.045c1.336.265.621,1.133.445,1.7a103.223,103.223,0,0,1-4.689,12.668,102.112,102.112,0,0,1-24.707,33.817A100.36,100.36,0,0,1,441.366,543.1,117.942,117.942,0,0,1,424.137,544.722Z" transform="translate(-203.723 -280.328)"/><path class="a" d="M332.927,45.588c30.248.31,56.09,7.863,79.708,22.974a143.57,143.57,0,0,1,24.739,19.992,140.4,140.4,0,0,1,24.19,32.624c.159.3.328.59.458.9.242.578.865,1.234-.131,1.678-.823.367-1.382,0-1.818-.755-1.648-2.854-3.265-5.728-5.009-8.523A139.52,139.52,0,0,0,415.622,73.2a142.481,142.481,0,0,0-55.059-23.036,135.628,135.628,0,0,0-34.144-2.043,141.556,141.556,0,0,0-117.036,75.264,138.25,138.25,0,0,0-15.029,45.761c-.048.331-.14.656-.217.983a1.14,1.14,0,0,1-1.476.991c-.837-.187-.7-.912-.617-1.481.4-2.589.762-5.187,1.282-7.753A144.577,144.577,0,0,1,279.363,56.777a145.584,145.584,0,0,1,40.318-10.268A122.039,122.039,0,0,1,332.927,45.588Z" transform="translate(-114.429 -27.169)"/><path class="a" d="M356.445,575.44c-32.489-.406-62.409-10.777-88.676-31.544a141.774,141.774,0,0,1-36.977-44.011c-.3-.556-1.17-1.3-.082-1.833,1.048-.512,1.7.117,2.216,1.089a131.586,131.586,0,0,0,13.042,19.889,141.682,141.682,0,0,0,41.723,35.734,139.7,139.7,0,0,0,49.119,16.931,143.538,143.538,0,0,0,31.173,1,141.425,141.425,0,0,0,80.751-32.671,142.471,142.471,0,0,0,37.169-48.2A135.9,135.9,0,0,0,497.875,452.4c.139-.964.32-1.8,1.5-1.7,1.342.124.833,1.125.724,1.853a144.613,144.613,0,0,1-73.986,105.467,145.67,145.67,0,0,1-46.638,15.636A154.05,154.05,0,0,1,356.445,575.44Z" transform="translate(-137.198 -268.637)"/><path class="a" d="M411.869,167.574c22.734.416,42.657,7.316,60.031,21.39a92.844,92.844,0,0,1,14.575,14.731c.386.49,1.617,1.081.622,1.9-.858.708-1.787.251-2.424-.622a70.027,70.027,0,0,0-7.859-8.651A90.011,90.011,0,0,0,427.25,171.19c-23.867-3.849-46.064.831-66.246,14.092-17.3,11.37-29.31,27.066-36.346,46.559-.4,1.107-.334,3.35-2.229,2.578-1.535-.626-.172-2.248.2-3.321A94.682,94.682,0,0,1,395.7,169.16,119.621,119.621,0,0,1,411.869,167.574Z" transform="translate(-191.759 -99.883)"/><path class="a" d="M435.026,539.712c-23.635-.32-44.472-8.051-62.383-23.556a87.563,87.563,0,0,1-11.436-11.907c-.383-.485-1.473-1.008-.48-1.748a1.546,1.546,0,0,1,2.276.51,79.259,79.259,0,0,0,6.494,7.172c14.41,14.406,31.688,23.374,51.819,26.221,27.4,3.874,52.036-2.993,73.4-20.714A90.14,90.14,0,0,0,522.5,475.543a11.554,11.554,0,0,1,.44-1.126,1.366,1.366,0,0,1,1.854-.758c.975.406.29,1.188.11,1.727A89.267,89.267,0,0,1,516.229,494a94,94,0,0,1-39.338,36.011,92.2,92.2,0,0,1-35.431,9.383c-1.071.062-2.134.253-3.205.307S436.1,539.712,435.026,539.712Z" transform="translate(-214.769 -282.25)"/><path class="b" d="M154.223,597.352c-.76.146-1.25-.4-1.811-.732q-13.224-7.708-26.435-15.44c-.4-.232-.776-.489-1.48-.935l19.025-3.376,6.143-1.092c2.052-.364,2.326-.131,1.889,1.882a30.058,30.058,0,0,0-.548,12.382,23.648,23.648,0,0,0,3.181,7.34Z" transform="translate(-74.206 -343.107)"/><path class="b" d="M942.707,458.438c1.744-6.745-.144-12.62-3.469-18.233-2-3.375-2.009-3.417,1.745-4.094,7.725-1.394,15.459-2.736,23.721-4.193Z" transform="translate(-559.038 -257.444)"/><path class="a" d="M350.606,638.748c2.065-2.652,4.123-5.261,6.14-7.9.641-.84,1.143-1.787,2.284-.571.894.953,3,1.327,1.42,3.361-3.466,4.454-6.891,8.94-10.348,13.4-.4.52-.875,1.2-1.653.664-1.017-.7-2.29-1.169-2.327-2.77-.093-3.96-.245-7.919-.4-11.877-.028-.709.372-1.74-.337-2.052-.866-.381-1.083.784-1.5,1.288-1.671,2.017-3.32,4.062-4.829,6.2-1.436,2.036-2.24.107-3.229-.408-1.159-.6-1.4-1.358-.459-2.545,3.31-4.149,6.488-8.4,9.792-12.557.544-.684.835-2.268,2.109-1.624,1.222.619,2.6,1.3,2.6,3.218.008,4.229.224,8.458.372,12.686C350.251,637.7,350.064,638.2,350.606,638.748Z" transform="translate(-199.547 -370.271)"/><path class="a" d="M758.4,571.833c-2.427-1.746-4.846-3.508-7.288-5.238a2.646,2.646,0,0,1,.338-4.725c.812-.441,1.27.225,1.772.578,4.4,3.093,8.784,6.2,13.131,9.36.6.438,1.851.763,1.546,1.61a3.935,3.935,0,0,1-2.411,2.78,15.3,15.3,0,0,1-2.985.369c-3.875.26-7.752.492-11.953.755a14.04,14.04,0,0,0,3.414,2.819c1.542,1.19,3.14,2.314,4.772,3.377,1.157.754,1.259,1.373.367,2.516-1.786,2.288-1.691,2.331-4.065.614-4.029-2.915-8.094-5.781-12.1-8.722-.672-.492-2.151-.756-1.558-1.93s1.156-2.6,2.949-2.686c4.087-.206,8.168-.517,12.251-.8C757.148,572.474,757.806,572.695,758.4,571.833Z" transform="translate(-441.815 -334.816)"/><path class="a" d="M510.4,695.085c-.762,3.284-.549,6.249-.648,9.195-.031.932.138,2.16-.781,2.554-1.093.469-2.372-.037-3.532-.295-.629-.139-.494-.883-.471-1.4q.393-8.651.811-17.3c.03-.64.118-1.3.937-1.28,1.357.026,2.788-.41,3.837,1.076,2.248,3.184,4.6,6.292,6.944,9.412.459.612.778,1.4,1.817,1.748.183-3.218.474-6.336.494-9.456.012-1.772.729-2.122,2.309-2.08,1.517.041,2.382.27,2.266,2.107-.351,5.56-.568,11.129-.841,16.694-.03.6,0,1.382-.8,1.4-1.278.027-2.693.566-3.708-.824-2.259-3.094-4.558-6.16-6.846-9.233C511.676,696.709,511.139,696.036,510.4,695.085Z" transform="translate(-300.972 -409.198)"/><path class="a" d="M553.1,78.795c.545-.585.314-1.287.341-1.925a65.356,65.356,0,0,1,.346-7.238,2.623,2.623,0,0,1,3.9-2.157c.642.287.657.8.634,1.335q-.385,8.848-.794,17.694c-.027.608-.276,1.069-.951,1.057-1.23-.022-2.547.41-3.5-.9-1.859-2.552-3.786-5.055-5.688-7.575-.923-1.223-1.855-2.439-2.869-3.772a2.771,2.771,0,0,0-.675,2.3c-.061,2.552-.106,5.1-.174,7.656s-1.974,1.436-3.221,1.559c-1.512.149-1.538-.884-1.485-1.977q.4-8.343.784-16.686c.031-.661-.055-1.5.906-1.5,1.281,0,2.662-.484,3.68.917,2.37,3.261,4.813,6.468,7.251,9.679C552,77.822,552.3,78.546,553.1,78.795Z" transform="translate(-321.237 -39.688)"/><path class="a" d="M582.774,694.885a9.521,9.521,0,0,1-6.254,9.031c-3.612,1.4-7.494,1.525-11.235,2.314-.915.193-1.211-.434-1.332-1.134q-1.5-8.739-2.96-17.487c-.1-.615-.073-1.31.747-1.405,4.308-.5,8.484-2.257,12.94-1.371C579.713,685.835,582.771,689.629,582.774,694.885Zm-11.307-6.417a32.491,32.491,0,0,1-3.374.488c-1.625.073-2.091.772-1.745,2.338.433,1.96.734,3.953,1.034,5.941.728,4.841.714,4.844,5.486,3.8,3.429-.751,5.523-3.438,5.156-6.616C577.566,690.455,575.4,688.515,571.468,688.468Z" transform="translate(-334.355 -408.049)"/><path class="a" d="M716.49,634.286c-5.445,0-10.479-4.865-10.41-10.054A12.028,12.028,0,0,1,717.8,612.462c5.506-.006,10.435,4.862,10.384,10.255A12.076,12.076,0,0,1,716.49,634.286Zm.521-17.389a6.579,6.579,0,0,0-6.485,6.218,7.1,7.1,0,0,0,6.759,6.729,6.583,6.583,0,0,0,6.447-6.458C723.713,620.095,720.373,616.871,717.011,616.9Z" transform="translate(-420.859 -365.058)"/><path class="a" d="M463.258,688.292A10.214,10.214,0,0,1,452.716,698.9c-6.455-.019-11.637-4.87-11.684-10.936a10.6,10.6,0,0,1,10.7-10.393C458.313,677.6,463.259,682.2,463.258,688.292Zm-17.412-.037a6.444,6.444,0,0,0,6.443,6.6c3.331.016,6.383-3.191,6.433-6.76a6.676,6.676,0,0,0-6.42-6.475C448.924,681.5,445.945,684.561,445.846,688.254Z" transform="translate(-262.877 -403.866)"/><path class="a" d="M433.877,82.413c3.108.177,5.445.88,6.754,3.371,1.409,2.682,1.674,5.408-.344,7.936-.7.872-.515,1.4.267,1.979,1.3.96,2.587,1.924,3.856,2.918.362.284,1.11.54.35,1.2a5.128,5.128,0,0,1-5.35.178,11.152,11.152,0,0,1-2.079-1.581c-1.372-1.658-2.9-1.211-4.547-.629-1.026.363-1.433.915-1.044,1.968.139.378.249.767.375,1.149.881,2.671-.035,3.95-2.839,4.074-.888.039-.964-.581-1.144-1.127q-2.738-8.328-5.452-16.664c-.213-.652-.483-1.339.47-1.644C426.847,84.351,430.46,82.859,433.877,82.413Zm-.284,4.106c-2.008-.025-5.437,1.313-5.423,2.115.03,1.641,2.011,5.875,2.734,5.843,3.038-.139,6.183-2.441,6.17-4.517A3.553,3.553,0,0,0,433.593,86.519Z" transform="translate(-251.816 -49.122)"/><path class="d" d="M548.991,564.494c1.394-1.932,2.564-3.645,3.834-5.28a2.483,2.483,0,0,0,.342-2.769c-.782-1.914-1.407-3.891-2.219-6.183,2.189.668,4.17,1.178,6.076,1.89a2.7,2.7,0,0,0,3.1-.487c1.509-1.318,3.168-2.465,5.2-4.022,0,2.414.071,4.437-.026,6.453a2.706,2.706,0,0,0,1.451,2.795c1.724,1.025,3.332,2.246,5.381,3.653-2.294.76-4.263,1.464-6.266,2.057a2.607,2.607,0,0,0-2.03,2.151c-.46,1.991-1.139,3.931-1.837,6.263-1.5-2.024-2.845-3.751-4.088-5.548a2.049,2.049,0,0,0-1.987-1C553.728,564.542,551.521,564.494,548.991,564.494Z" transform="translate(-327.226 -326.423)"/><path class="d" d="M508.052,208.124c-1.289,1.816-2.4,3.554-3.691,5.137a2.715,2.715,0,0,0-.4,3.113c.755,1.844,1.372,3.743,2.188,6.01-2.34-.726-4.373-1.277-6.343-2a2.479,2.479,0,0,0-2.747.484c-1.586,1.318-3.255,2.538-5.314,4.127,0-2.457-.1-4.5.036-6.531a2.689,2.689,0,0,0-1.49-2.755c-1.7-1.058-3.329-2.239-5.326-3.6a54.581,54.581,0,0,1,5.7-1.907,3.323,3.323,0,0,0,2.769-2.923c.416-1.808,1.027-3.571,1.649-5.678,1.442,1.947,2.713,3.579,3.884,5.28a2.449,2.449,0,0,0,2.452,1.282C503.531,208.02,505.663,208.124,508.052,208.124Z" transform="translate(-289.062 -120.166)"/><path class="a" d="M334.877,155.407a10.194,10.194,0,0,1-9.66-6.929c-1.5-4.09-.177-8.573,3.5-11.8a11.7,11.7,0,0,1,6.884-3.034c.807-.064,2.232-.555,2.186.9-.037,1.144.356,2.9-1.7,3.118a8.2,8.2,0,0,0-4.575,1.917,6.3,6.3,0,0,0-2.043,6.723,6.517,6.517,0,0,0,5.512,4.658,7.092,7.092,0,0,0,6.759-3.484,1.32,1.32,0,0,0-.1-1.653c-.518-.616-.988-1.273-1.5-1.9-1.58-1.922-1.3-3.072.955-4.115a1.152,1.152,0,0,1,1.566.428c1.3,1.629,2.589,3.259,3.9,4.876.523.644.237,1.262.02,1.9A12.863,12.863,0,0,1,334.877,155.407Z" transform="translate(-193.484 -79.579)"/><path class="a" d="M499.652,89.419c-1.525.317-1.782-.61-2.092-1.291-.894-1.962-2.11-2.967-4.4-2.122a10.342,10.342,0,0,1-3.173.458c-2.333.082-3.919.833-4.155,3.5-.115,1.3-3.2,2.584-4.386,2.01-.579-.281-.431-.777-.3-1.22,1.81-6.321,3.59-12.651,5.473-18.951.565-1.89,2.5-1.066,3.776-1.554,1.044-.4,1.4.4,1.834,1.1q4.92,7.847,9.868,15.677c1.141,1.808,1.058,2.011-1.041,2.271C500.448,89.368,499.845,89.4,499.652,89.419Zm-10.743-6.4c1.576-.235,2.7-.445,3.833-.559.983-.1,1.148-.515.676-1.317-.92-1.564-1.824-3.138-2.765-4.689-.158-.261-.465-.6-.708-.605-.5-.008-.53.536-.627.9-.418,1.557-.758,3.135-1.211,4.682C487.756,82.637,487.839,83.337,488.909,83.022Z" transform="translate(-286.714 -41.807)"/><path class="a" d="M381.9,112.561c.051-1.517-.479-3.118,1.612-4.216a3.28,3.28,0,0,1,4.251.375c4.719,3.782,9.54,7.439,14.366,11.085,1.068.807.91,1.092-.139,1.772-1.855,1.2-3.481,1.985-5.171-.242-.858-1.131-1.983-1.058-3.191-.3a29.023,29.023,0,0,1-4.434,2.388c-1.88.761-2.256,2.057-1.959,3.856.275,1.663-1.722,3.962-3.361,3.994-.727.015-.689-.493-.721-.951C382.731,124.429,382.318,118.537,381.9,112.561Zm4.229.076c-.429,2.2.276,3.946.289,5.743.016,2.277.392,2.411,2.443,1.246.7-.4,1.4-.781,2.125-1.122,1.074-.5,1.023-1.079.18-1.763C389.568,115.446,387.976,114.145,386.126,112.637Z" transform="translate(-227.616 -64.218)"/><path class="a" d="M674.482,105.564c-.757,5.8-.1,11.807-.742,17.765-.1.968-.23,1.339-1.308.91-2.786-1.107-3.04-1.349-2.82-4.282a2.3,2.3,0,0,0-1.555-2.66,50.346,50.346,0,0,1-5.251-2.576c-1.245-.706-2.249-.778-3.112.466-1.356,1.953-2.879,1.855-4.781.695-1.195-.73-1.477-1.118-.307-2.093,4.544-3.784,9.138-7.515,13.522-11.478,1.8-1.627,3.241-1.171,5.064-.358C674.954,102.737,674.291,104.17,674.482,105.564Zm-4.148,1.771c-.042-.17-.017-.6-.215-.766-.4-.336-.724.084-1.009.333-1.355,1.185-2.68,2.4-4.051,3.571-.864.737-.635,1.147.292,1.546,1.041.448,2.057.958,3.064,1.479,1.157.6,1.561.172,1.6-1.022A23.435,23.435,0,0,1,670.333,107.334Z" transform="translate(-389.732 -60.33)"/><path class="a" d="M790.54,528.493c3.094,0,6.188.041,9.28-.021,1.355-.027,1.806.206,1.256,1.691-.747,2.016-1.825,3.215-4.132,2.773-1.427-.273-2.232.371-2.741,1.707A51.648,51.648,0,0,1,791.854,540a2.059,2.059,0,0,0,.514,2.8c2.21,2.19,2.216,2.878.627,5.465-.467.76-.853.73-1.378.145-4.438-4.952-8.9-9.883-13.3-14.871-1.189-1.349.263-2.5.571-3.717a1.74,1.74,0,0,1,1.966-1.341C784.083,528.521,787.312,528.495,790.54,528.493ZM783.2,532.6l-.538.7a22.2,22.2,0,0,1,2.52,1.9c3.71,3.7,3.841,3.682,5.53-1.35.021-.063.052-.124.079-.185.285-.654.108-1.058-.64-1.063C787.834,532.592,785.517,532.6,783.2,532.6Z" transform="translate(-463.643 -314.995)"/><path class="a" d="M653.232,657.392a6.518,6.518,0,0,1,1.308.014c.955.215,2.394-.217,2.489,1.35a2.552,2.552,0,0,1-2.929,2.7c-3.731-.332-6.44,1.4-7.449,4.756a6.865,6.865,0,0,0,3.334,7.529c2.922,1.665,7.072.355,8.864-2.8a2.771,2.771,0,0,1,4.1-.36c.423.547.043,1.025-.151,1.5-1.595,3.893-7.016,7.136-11.1,6.657-5.3-.623-9.141-4.195-9.815-9.136a10.883,10.883,0,0,1,6.754-11.275A9.26,9.26,0,0,1,653.232,657.392Z" transform="translate(-382.542 -391.815)"/><path class="a" d="M403.3,680.009c-5.338.033-10.332-3.875-11.338-8.833a10.823,10.823,0,0,1,6.086-11.63c5.113-2.31,12.182.333,14.6,5.492.328.7,1.215,1.712-.241,2.082-1.083.275-2.4,1.814-3.39-.29a6.337,6.337,0,0,0-5.346-3.77,5.794,5.794,0,0,0-6.125,2.978c-1.351,2.331-1.659,4.7-.062,7.02a6.211,6.211,0,0,0,6.441,2.85c1.495-.253,2.171,0,2.642,1.467.664,2.067.546,2.4-1.657,2.627C404.377,680.055,403.835,680.009,403.3,680.009Z" transform="translate(-233.516 -392.621)"/><path class="a" d="M601.158,90.656c.858-3.944,1.671-8.171,2.732-12.335.5-1.947-.064-2.765-1.945-2.966-.6-.064-1.18-.274-1.778-.351-1.3-.168-2.323-.324-1.917-2.205.4-1.848,1.194-1.991,2.827-1.6,4.311,1.032,8.658,1.924,13.01,2.771,1.581.307,1.914,1.023,1.607,2.537-.324,1.6-1.081,1.595-2.426,1.31-4.3-.911-4.3-.849-5.213,3.464-.712,3.352-1.529,6.682-2.165,10.047-.275,1.454-.966,1.888-2.2,1.292C602.8,92.188,601.021,92.964,601.158,90.656Z" transform="translate(-356.533 -42.332)"/><path class="d" d="M495.375,553.868a9.6,9.6,0,0,1,1.4.976c2.383,2.674,5.106,3.291,8.292,1.474a4.975,4.975,0,0,1,1.267-.335c.089.191.15.263.134.3-1.853,3.824-2.529,7.483,2.209,10.45a14.123,14.123,0,0,1-5.046.22,2.942,2.942,0,0,0-2.966,1.518,23.368,23.368,0,0,1-2.724,3.432c-.351-4.776-2.611-7.583-7.785-7.591l.285-.595a24.175,24.175,0,0,1,3.038-2.094,3.262,3.262,0,0,0,1.923-3.73C495.271,556.718,495.375,555.519,495.375,553.868Z" transform="translate(-292.156 -330.133)"/><path class="d" d="M433.537,243.071a23.8,23.8,0,0,1,3.03-2.392c1.828-1,2.22-2.448,1.881-4.347-.194-1.093-.2-2.219-.288-3.3.206-.055.3-.109.331-.084,3.305,2.9,6.8,4,10.513.874.256.347.343.422.329.452-1.734,3.955-1.8,7.568,2.589,10.281l-.458.361c-1.415.09-2.832.275-4.244.242a2.8,2.8,0,0,0-2.833,1.72c-.64,1.234-1.474,2.366-2.38,3.789-.612-1.628-1.218-2.945-1.6-4.324a2.792,2.792,0,0,0-2.474-2.189C436.584,243.9,435.256,243.5,433.537,243.071Z" transform="translate(-258.41 -138.843)"/><path class="d" d="M574.575,216.607c-4.487,1.641-6.515,4.582-4.926,9.5a10.845,10.845,0,0,1-3.946-2.6,2.871,2.871,0,0,0-3.26-.585,25.258,25.258,0,0,1-4.35,1.209c2.627-4.086,2.1-7.661-1.4-10.544.242-.343.286-.441.312-.437,4.315.711,7.779-.3,9.369-5.135l.4.365a36.672,36.672,0,0,1,1.237,4.054,2.648,2.648,0,0,0,2.261,2.392,39.867,39.867,0,0,1,3.961,1.325Z" transform="translate(-331.815 -123.983)"/><path class="d" d="M622.179,530.369c.905,4.731,3.215,7.555,8.505,7.214a15.526,15.526,0,0,1-3.808,3.354,2.568,2.568,0,0,0-1.146,2.721c.189,1.43.19,2.886.292,4.667-1.451-.954-2.682-1.627-3.748-2.5a2.735,2.735,0,0,0-3.3-.373,24.486,24.486,0,0,1-4.23,1.505c2.344-4.285,1.56-7.819-2.344-10.56.449-.248.562-.368.658-.356C617.47,536.614,620.577,535.015,622.179,530.369Z" transform="translate(-365.024 -316.127)"/><path class="a" d="M813.852,482.749c-.866,3.446-1.883,7.482-2.893,11.52-.205.822-.692,1.057-1.5.854q-8.6-2.162-17.2-4.289c-1.028-.253-1.308-.79-.979-1.76a8.778,8.778,0,0,0,.386-1.563c.186-1.3.788-1.595,2.087-1.246,4.084,1.1,8.22,2,12.3,3.1,1.543.419,2.217.061,2.529-1.508.431-2.171,1.122-4.29,1.553-6.46.307-1.545,1.253-1.228,2.255-1.035S814.281,480.822,813.852,482.749Z" transform="translate(-471.566 -286.224)"/><path class="a" d="M626.986,693.2c-.062.979-1,.89-1.618,1.1-3.368,1.14-2.663,1.006-3.631-1.868-1.69-5.02-3.224-10.094-4.956-15.1-.566-1.634.378-1.914,1.464-2.124,1.057-.2,2.392-1.661,3.094.5q2.734,8.418,5.474,16.835C626.876,692.737,626.916,692.935,626.986,693.2Z" transform="translate(-367.532 -402.061)"/><path class="a" d="M640.217,104.511c-.549-.182-1.243-.441-1.953-.641-1-.284-1.205-.853-.877-1.825q2.808-8.305,5.535-16.638c.314-.962.716-1.232,1.746-.939,3.239.921,3.242.873,2.193,4.064q-2.391,7.275-4.758,14.557C641.827,103.929,641.62,104.857,640.217,104.511Z" transform="translate(-379.828 -50.28)"/><path class="a" d="M317.927,622.622a7.752,7.752,0,0,1-2.649-2.516c-.654-.971.363-1.447.886-1.958,3.935-3.844,7.919-7.639,11.849-11.488.951-.931,1.708-1.253,2.542.085a6.022,6.022,0,0,0,1.089,1.18c.661.6.8,1.146.076,1.842-4.215,4.038-8.4,8.1-12.617,12.143A6.221,6.221,0,0,1,317.927,622.622Z" transform="translate(-187.795 -361.117)"/><path class="a" d="M696.64,659.222a7.707,7.707,0,0,1-2.986,2.258c-.863.489-1.171-.39-1.513-.9-3.132-4.682-6.183-9.42-9.383-14.055-1.106-1.6-.072-2.109.978-2.757.966-.6,1.823-1.707,2.927.016,3,4.686,6.134,9.291,9.2,13.936A16.023,16.023,0,0,1,696.64,659.222Z" transform="translate(-406.675 -383.178)"/><path class="d" d="M661.6,506.051c3.376,3.806,3.376,3.806,7.49,3.7-2.316,2.359-3.156,4.812-1.1,7.755-2.972-1.4-5.545-1.4-7.779,1.422.369-3.251-.392-5.671-3.769-6.855C659.569,511.358,661.759,509.957,661.6,506.051Z" transform="translate(-391.271 -301.632)"/><path class="d" d="M455.882,543.078c1.472,3.032,3.62,4.168,6.964,3.382-2.157,2.394-2.914,4.839-.634,7.865-1.93-.5-3.33-1.264-4.57-1.059-1.176.194-2.185,1.406-3.693,2.471.706-3.419-.3-5.7-3.553-6.94C453.5,548.059,455.722,546.71,455.882,543.078Z" transform="translate(-268.459 -323.702)"/><path class="d" d="M412.2,269.489c-.648,3.362.51,5.478,3.695,6.729-3.125.7-5.251,2.162-5.178,5.736-1.489-.963-1.825-2.614-2.984-3.27-1.207-.682-2.736.036-4.621-.215,2.649-2.265,3.122-4.751,1.329-7.713C407.464,272.327,409.912,271.983,412.2,269.489Z" transform="translate(-240.273 -160.629)"/><path class="d" d="M610.471,234.153c3.064,1.934,5.49,1.435,7.745-.986-.45,3.312.6,5.57,3.812,6.792-3.206.627-5.282,2.111-5.428,5.7-1.6-2.844-3.728-4.3-7.376-3.127,1.081-1.6,2.305-2.679,2.493-3.91S611.044,236.024,610.471,234.153Z" transform="translate(-363.129 -138.979)"/><path class="a" d="M198,629.427a.662.662,0,0,1,.151.094c.018.019,0,.077-.008.117q-.054-.119-.107-.24Z" transform="translate(-118.016 -375.153)"/><path class="a" d="M435.454,391.174c-1.02,12.342-8.84,20.881-22.11,23.771-7.679,1.672-15.439,2.972-23.155,4.475-1.1.214-1.532-.061-1.746-1.21q-4.469-23.977-9.047-47.935c-.167-.873-.219-1.4.823-1.572,9.149-1.5,18.132-4.19,27.4-4.725C424.977,362.975,435.831,374.978,435.454,391.174Zm-12.09-.578c-.051-.683-.1-1.489-.175-2.292-.919-9.462-8.355-15.447-17.742-14.143-3.788.526-7.529,1.387-11.3,2.018-1.037.173-1.312.5-1.1,1.568q2.758,14.14,5.382,28.306c.224,1.219.595,1.6,1.8,1.357,3.62-.742,7.293-1.263,10.874-2.153C418.667,403.378,423.283,397.794,423.365,390.6Z" transform="translate(-226.084 -216.915)"/><path class="a" d="M650.229,370.071c-3.663.694-7.292,1.347-10.9,2.089a1.765,1.765,0,0,1-2.13-.963c-1.569-2.506-3.253-4.941-4.82-7.448a1.973,1.973,0,0,0-2.423-1.1c-6.783,1.361-13.588,2.609-20.393,3.858a1.9,1.9,0,0,0-1.807,1.741c-.521,2.908-1.249,5.78-1.754,8.69a1.974,1.974,0,0,1-1.881,1.9c-2.915.482-5.823,1.026-8.707,1.664-1.6.354-1.839-.152-1.492-1.6q3.532-14.689,6.985-29.4c1.715-7.255,3.457-14.5,5.1-21.775a2.583,2.583,0,0,1,2.435-2.327c2.854-.439,5.688-1.019,8.518-1.6a1.553,1.553,0,0,1,1.859.706q15.565,22.461,31.172,44.893A3.256,3.256,0,0,1,650.229,370.071Zm-35.568-33.323a3.521,3.521,0,0,0-.345.664q-1.944,9.145-3.875,18.293c-.221,1.042.177,1.306,1.166,1.115q6.616-1.271,13.245-2.481c.806-.148,1.052-.425.549-1.188C621.833,347.724,618.283,342.285,614.661,336.748Z" transform="translate(-353.923 -192.969)"/><path class="a" d="M740.6,352.713a34.068,34.068,0,0,1-12.085-1.913c-1.224-.439-1.718-.978-1.312-2.356.645-2.188,1.119-4.429,1.607-6.66.24-1.1.618-1.337,1.755-.885a29.181,29.181,0,0,0,18.012,1.215,12.079,12.079,0,0,0,5.274-2.4c2.948-2.56,2.3-6.243-1.338-7.636-2.755-1.055-5.68-.995-8.554-1.15a86.9,86.9,0,0,1-10.039-.911c-5.218-.895-9.452-3.228-11.235-8.565-1.848-5.531-1.013-10.653,3.017-15.014,4.288-4.64,9.976-6.436,15.968-7.423a35.286,35.286,0,0,1,15.593.778c1.191.34,1.8.747,1.394,2.2a64.523,64.523,0,0,0-1.312,6.521c-.206,1.218-.655,1.521-1.9,1.136a26.235,26.235,0,0,0-15.882-.234,9,9,0,0,0-4.9,3c-2.127,2.869-1.041,6.172,2.377,7.128,3.733,1.043,7.6.853,11.416,1.136a48.979,48.979,0,0,1,8.594,1.069c4.949,1.27,8.618,4.036,9.889,9.269,1.392,5.731-.019,10.709-4.384,14.663-5.753,5.211-12.894,6.629-20.349,7.026C741.674,352.736,741.134,352.711,740.6,352.713Z" transform="translate(-430.197 -177.917)"/><path class="a" d="M250.03,397.1c-.861,3.811-1.713,7.61-2.578,11.406-2.538,11.128-5.106,22.25-7.6,33.388a2.546,2.546,0,0,1-2.484,2.293c-3.055.436-6.1.984-9.1,1.7-1.769.424-1.663-.157-1.344-1.512,3.18-13.527,6.289-27.072,9.479-40.6.358-1.518.553-2.2-1.5-1.729-4.319.984-8.691,1.753-13.063,2.479-1.292.215-1.544.745-1.3,1.877.377,1.773.635,3.574,1.067,5.333.257,1.051-.055,1.463-1.074,1.637-2.714.464-5.421.974-8.124,1.5-.66.129-1.1.242-1.267-.674-.992-5.347-2.04-10.684-3.082-16.021-.222-1.137.575-1.142,1.313-1.282q11.68-2.206,23.356-4.426c4.683-.887,9.376-1.727,14.046-2.678,1.3-.265,1.962-.183,2.139,1.36C249.139,393.156,249.644,395.119,250.03,397.1Z" transform="translate(-123.99 -232.272)"/><path class="a" d="M538.039,343.179c1.047-.2,1.02.6,1.141,1.238q3.253,17.211,6.5,34.423c.859,4.55,1.679,9.108,2.6,13.646.194.957.035,1.285-.933,1.455-3.171.559-6.332,1.181-9.486,1.83-1.164.24-1.321-.41-1.489-1.3q-3.814-20.282-7.67-40.556c-.474-2.506-.913-5.019-1.432-7.516-.147-.707-.148-1.177.673-1.329Q532.993,344.128,538.039,343.179Z" transform="translate(-314.236 -204.534)"/><path class="c" d="M443.539,405.448c-.081,7.2-4.7,12.781-12.264,14.661-3.581.89-7.254,1.411-10.874,2.153-1.21.248-1.581-.138-1.8-1.357q-2.6-14.17-5.382-28.306c-.208-1.07.067-1.4,1.1-1.568,3.775-.631,7.516-1.492,11.3-2.018,9.387-1.3,16.823,4.681,17.742,14.143C443.442,403.959,443.488,404.764,443.539,405.448Z" transform="translate(-246.258 -231.765)"/><path class="c" d="M639.156,355.933c3.622,5.538,7.172,10.977,10.74,16.4.5.764.256,1.041-.549,1.188q-6.627,1.218-13.245,2.481c-.99.19-1.388-.073-1.166-1.115q1.945-9.145,3.875-18.293A3.541,3.541,0,0,1,639.156,355.933Z" transform="translate(-378.419 -212.154)"/></svg>