<svg xmlns="http://www.w3.org/2000/svg" viewBox="0 0 3146.12 361.94"><defs><style>.cls-1{fill:#8f3d25;}</style></defs><g id="Camada_2" data-name="Camada 2"><g id="Camada_1-2" data-name="Camada 1"><path class="cls-1" d="M116.94,361.94q-12.14-1.62-21.85-2.43t-20.63-1.62q-10.93-.81-19.83-.8-10.93,0-23.67,1T0,360.73l3.24-32q16.59-2.43,22.25-9.51t5.67-24.07V149.1q0-12.94-2.43-17.4t-9.31-4.45q-4.05,0-13,.81l-3.23-4.45L6.88,95.28q12.54.41,21.65.61l18.61.4q9.51.21,15.18.2,6.87,0,17.8-.4L102,95.28q10.92-.39,25.9-.81,41.67,0,70.61,14.16t44.1,41.07q15.18,26.93,15.18,66.17,0,32.77-10.12,59.48a136.93,136.93,0,0,1-28.73,46.33,123.5,123.5,0,0,1-44.51,29.94Q148.51,361.94,116.94,361.94Zm-7.69-225.79c-3.78,0-6.34.75-7.68,2.22s-2.17,4.12-2.43,7.9q-2.43,42.48-3.64,79.31t-1.22,69.6q0,10.11,2.23,15.57a12.74,12.74,0,0,0,7.69,7.49q5.46,2,15.58,2,31.56,0,46.93-22.05t15.38-68.59q0-34-7.49-54.42t-23.47-29.74Q135.15,136.14,109.25,136.15Z"/><path class="cls-1" d="M277.58,361.13l3.24-31.56q16.19-2.43,22.05-9.71t5.87-25.49l.4-146.08q0-12.94-2.42-17.4T297,126.44c-1.61,0-3.57.07-5.86.2a57.79,57.79,0,0,0-5.87.61l-3.64-4.45,3.64-27.52q10.51,0,25.29.41t29.94.6q15.18.21,27.32.2,27.51,0,51.18-.6t42.29-1.82q18.61-1.21,30.35-2.43l4.05,5.26q-2,10.53-3.85,24.08t-3.24,27.11q-1.41,13.56-2.22,25.29l-44.51,2.83q.39-3.24.6-7.89t.21-7.49a36.39,36.39,0,0,0-1.82-12.54,14.13,14.13,0,0,0-6.48-7.49q-4.65-2.62-14-3.44t-24.28-.81a64.72,64.72,0,0,0-11.73.81c-2.7.55-4.45,1.69-5.26,3.44a19.69,19.69,0,0,0-1.22,7.89l-4.45,84.57-.81,61.51q0,10.92,1.62,16a9.73,9.73,0,0,0,6.48,6.68q4.85,1.62,15.37,1.62a176.76,176.76,0,0,0,26.51-1.62q10.32-1.6,16-6.07t8.9-13.35q3.24-8.89,4.86-23.88l41.68-2.83,3.64,4.86q-3.24,15.78-6.27,37.83t-5.06,40.67l-4.86,5.26q-20.64-.82-44.31-1.42t-45.32-1q-21.64-.4-37.83-.4t-37.43,1Q295.39,359.1,277.58,361.13ZM369,247.83l2.83-43.29h9.72q6.87,0,15,.2t14.56.2q6.48,0,20.44-1l25.29-1.82,4.05,4.45-5.67,39.65q-10.12-.39-25.09-.81t-25.89-.4a188.71,188.71,0,0,0-19.43,1Q375.1,247,369,247.83Z"/><path class="cls-1" d="M598.46,361.94q-22.25,0-39-4.05a227.37,227.37,0,0,1-35.81-12.13l-4.05-6.48Q522,327.15,523.2,317T525.63,295q1.22-11.93,1.62-23.67l40.87-2.83q0,19,4,29.94T585.31,314q9.11,4.67,23.68,4.65,16.17,0,25.89-6.87t9.71-18.21q0-10.53-8.49-17.81A100.76,100.76,0,0,0,614,262q-13.56-6.47-28.52-13.35a250.8,250.8,0,0,1-29.95-16.79,83.44,83.44,0,0,1-23.87-23.27q-9.32-13.76-9.31-33.58,0-25.09,14.57-43.71t40.46-29.13q25.89-10.51,59.89-10.52a238.7,238.7,0,0,1,37.43,2.63,283.08,283.08,0,0,1,35.41,8.29l3.64,6.88q-3.64,19.43-6.27,35.41t-3.85,34.6L666,182.28,662,179q.4-6.87.41-10.52,0-16.59-8.5-23.87t-26.71-7.29q-14.57,0-23.87,6.88T594,161.64Q594,171,601.3,178A74.41,74.41,0,0,0,620.52,191q11.93,5.86,25.69,12.34a296.63,296.63,0,0,1,33.18,16.79,92.77,92.77,0,0,1,26.91,23.47Q717,257.54,717,279q0,25.49-14.57,44.11t-41.07,28.73Q634.87,361.94,598.46,361.94Z"/><path class="cls-1" d="M863.91,356.68l2-28.73q13-1.21,19-2.43c4-.81,6.74-2.08,8.1-3.84s2-4.38,2-7.89a31,31,0,0,0-.41-4.65q-.4-2.64-1.21-6.28l-6.07-24.28q-7.7-.39-17.8-.6t-16.59-.2q-8.1,0-18,.8t-18,1.62l-7.28,25.09q-2,8.1-2,11.33c0,4.05,1.14,6.82,3.44,8.3s6.53,2.22,12.74,2.22h14.57l2.43,3.24-3.24,28.73q-19.83-1.22-33.59-1.42t-26.7-.2H753.85q-11.75,0-27.52.4l2.84-30.34a27.61,27.61,0,0,0,14.36-7.29q5.87-5.65,9.51-17.4L821.83,98.52,904,92l5.26,3.24q5.25,21.85,10.12,40.06t10.72,40.46L942,221.12q6.06,23.07,11.73,43.71T963.86,300q4,14.18,10.32,20.43t18,7.09l2.43,3.64-3.23,27.11q-18.21-.41-30.56-.61t-22.05-.2q-18.21,0-34.8.61t-37.63,1.82ZM828.3,238.93h25.09q5.67,0,13.15-.4t13.15-.81L860.27,156h-6.88Z"/><path class="cls-1" d="M1005.94,330q16.18-2.82,22-10.31t5.87-25.29l.4-146.08q0-12.94-2.42-17.4t-9.71-4.45q-3.64,0-11.74.81l-3.64-4.45,3.64-27.52q16.18.41,28.93.61t27.11.4q14.37.21,26.51.2,24.68,0,46.33-.6t39-1.82q17.39-1.21,28.32-2.43l4,5.26q-3.24,22.66-5.06,40.46T1203,173.78l-44.91,2.83c.53-8.09.81-13.35.81-15.78q0-10.52-2.84-15.58t-10.92-6.88q-8.1-1.81-23.88-1.82a64.8,64.8,0,0,0-11.73.81c-2.7.55-4.45,1.69-5.26,3.44a19.69,19.69,0,0,0-1.22,7.89l-2.83,62.72,36,.41q6.06,0,16.18-.81t26.3-2l3.65,4.45-5.67,39.65q-16.18-.81-27.11-1t-20.23-.2q-8.91,0-17.2.81t-13.56,1.62l-.81,39.65q0,15,3.65,20.23t13.75,5.26a82.88,82.88,0,0,0,11.54-.81q5.85-.79,13.55-2l4.86,5.67-4.86,36q-14.16-.41-24.68-.61l-21.25-.4q-10.72-.21-18.41-.2-17.4,0-34.39,1t-38.85,3.44Z"/><path class="cls-1" d="M1221.61,359.92l3.24-29.54q17.39-3.64,22.66-10.32t5.26-23.27l.4-149.31q0-12.54-3-16.79t-11.54-4.25c-1.61,0-3.64.07-6.07.2s-4.59.34-6.47.61l-2.83-4.45,3.23-26.71q15,0,30.56.2t29.33.2q7.68,0,24.08-.8t38.64-1.62l-2.43,30.75q-14.57,2-19.42,6.07t-5.66,15.78q-.82,17.81-1.62,37.63t-1.62,40.06q-.81,20.25-1,39.46t-.2,35.4q0,17,3,22.46t11.53,5.46c2.7,0,5.46-.13,8.3-.4s5.19-.54,7.08-.81l2.43,3.24-3.65,29.53q-9.7-.4-22-.81t-23.47-.6q-11.13-.21-17.6-.2-9.7,0-26.5.8T1221.61,359.92Z"/><path class="cls-1" d="M1486.24,361.94q-37.23,0-63.53-15.38t-40.26-44.3q-14-28.93-14-69.4,0-32.78,8.9-58.88t26.31-44.51a115.13,115.13,0,0,1,41.88-28.12q24.47-9.7,55.23-9.71,38.45,0,65,15t40.26,43.3q13.76,28.32,13.76,69.6,0,32.78-9.31,59.07t-26.71,44.92A115.93,115.93,0,0,1,1541.68,352Q1517,361.93,1486.24,361.94Zm9.31-41.68q15.78,0,26.5-8.7t16.39-25.89q5.67-17.21,5.67-43.5,0-36-5.87-59.08t-17.6-34.19q-11.75-11.13-30-11.13-15.37,0-25.89,8.5t-16,25.49q-5.46,17-5.46,43.3,0,36,5.87,59.28t17.6,34.59Q1478.55,320.27,1495.55,320.26Z"/><path class="cls-1" d="M1818.5,361.94l-3.64-4.45q.81-10.51,1.21-19.22t.81-19q.4-10.32.41-20.84-23.47-.81-48.36-1t-45.92-.2c.27-5.4.46-10.86.6-16.39s.2-11,.2-16.39l104-148.91a9,9,0,0,0,1.82-.2,8.82,8.82,0,0,1,1.42-.2l43.29,4.45V257.14h30.76l4,5.26-4,38.84q-16.61-.8-30.35-1.21.39,13.35,1,25.49t1.41,27.52l-3.64,4Zm-48.56-104.8h47.75V192.4h-4Z"/><path class="cls-1" d="M2384.59,361.94q-12.15-1.62-21.85-2.43t-20.64-1.62q-10.92-.81-19.83-.8-10.92,0-23.67,1t-31,2.63l3.24-32q16.59-2.43,22.26-9.51t5.66-24.07V149.1q0-12.94-2.43-17.4t-9.3-4.45q-4.05,0-13,.81l-3.24-4.45,3.64-28.33q12.54.41,21.65.61l18.62.4q9.49.21,15.17.2,6.87,0,17.8-.4l21.85-.81q10.93-.39,25.9-.81,41.67,0,70.61,14.16t44.11,41.07q15.17,26.93,15.17,66.17,0,32.77-10.11,59.48a137.24,137.24,0,0,1-28.73,46.33,123.5,123.5,0,0,1-44.51,29.94Q2416.15,361.94,2384.59,361.94Zm-7.69-225.79c-3.78,0-6.34.75-7.69,2.22s-2.16,4.12-2.43,7.9q-2.43,42.48-3.64,79.31t-1.21,69.6q0,10.11,2.22,15.57a12.77,12.77,0,0,0,7.69,7.49q5.46,2,15.58,2,31.56,0,46.94-22.05t15.37-68.59q0-34-7.48-54.42t-23.47-29.74Q2402.79,136.14,2376.9,136.15Z"/><path class="cls-1" d="M2545.23,359.92l3.23-29.54q17.4-3.64,22.66-10.32t5.26-23.27l.41-149.31q0-12.54-3-16.79t-11.53-4.25q-2.43,0-6.07.2t-6.47.61l-2.84-4.45,3.24-26.71q15,0,30.55.2t29.34.2q7.68,0,24.08-.8t38.64-1.62l-2.43,30.75q-14.57,2-19.42,6.07t-5.67,15.78q-.81,17.81-1.62,37.63t-1.61,40.06q-.83,20.25-1,39.46t-.2,35.4q0,17,3,22.46t11.53,5.46c2.69,0,5.46-.13,8.29-.4s5.2-.54,7.09-.81l2.42,3.24-3.64,29.53q-9.7-.4-22-.81t-23.47-.6q-11.13-.21-17.6-.2-9.72,0-26.51.8T2545.23,359.92Z"/><path class="cls-1" d="M2810.26,356.68l2-28.73q12.95-1.21,19-2.43c4-.81,6.73-2.08,8.09-3.84s2-4.38,2-7.89a32.2,32.2,0,0,0-.4-4.65q-.41-2.64-1.22-6.28l-6.07-24.28q-7.68-.39-17.8-.6t-16.59-.2q-8.1,0-18,.8t-18,1.62L2756,305.29q-2,8.1-2,11.33c0,4.05,1.14,6.82,3.44,8.3s6.54,2.22,12.74,2.22h14.57l2.43,3.24L2784,359.11q-19.83-1.22-33.58-1.42t-26.71-.2H2700.2q-11.74,0-27.52.4l2.84-30.34a27.61,27.61,0,0,0,14.36-7.29q5.86-5.65,9.51-17.4l68.79-204.34L2850.32,92l5.26,3.24q5.27,21.85,10.12,40.06t10.72,40.46l11.94,45.32q6.07,23.07,11.73,43.71t10.12,35.2q4,14.18,10.32,20.43t18,7.09l2.42,3.64-3.23,27.11q-18.21-.41-30.55-.61c-8.24-.14-15.58-.2-22.06-.2q-18.21,0-34.8.61t-37.63,1.82Zm-35.6-117.75h25.08q5.67,0,13.15-.4t13.15-.81L2806.62,156h-6.88Z"/><path class="cls-1" d="M3027.56,361.94q-22.26,0-39-4.05a227.37,227.37,0,0,1-35.81-12.13l-4-6.48q2.43-12.13,3.64-22.25t2.43-22.06q1.22-11.93,1.62-23.67l40.87-2.83q0,19,4,29.94T3014.41,314q9.11,4.67,23.67,4.65,16.17,0,25.89-6.87t9.72-18.21q0-10.53-8.5-17.81A100.76,100.76,0,0,0,3043.13,262q-13.56-6.47-28.52-13.35a251.58,251.58,0,0,1-30-16.79,83.44,83.44,0,0,1-23.87-23.27q-9.32-13.76-9.31-33.58,0-25.09,14.57-43.71t40.46-29.13q25.9-10.51,59.89-10.52a238.52,238.52,0,0,1,37.43,2.63,282.67,282.67,0,0,1,35.41,8.29l3.64,6.88q-3.65,19.43-6.27,35.41t-3.85,34.6l-37.63,2.83-4-3.24c.26-4.58.4-8.09.4-10.52q0-16.59-8.5-23.87t-26.7-7.29q-14.57,0-23.88,6.88t-9.3,17.4q0,9.31,7.28,16.39A74.58,74.58,0,0,0,3049.61,191q11.92,5.86,25.69,12.34a297.63,297.63,0,0,1,33.19,16.79,92.85,92.85,0,0,1,26.9,23.47q10.72,14,10.73,35.41,0,25.49-14.57,44.11t-41.07,28.73Q3064,361.94,3027.56,361.94Z"/><path class="cls-1" d="M2096.85,141.63a58.32,58.32,0,0,1-6.68,23.65,93.75,93.75,0,1,1-103.82,0,58.47,58.47,0,0,1-6.67-23.65,117.4,117.4,0,1,0,117.17,0Z"/><path class="cls-1" d="M2065.55,109l-7.48,6.88a29.52,29.52,0,1,1-39.62,0L2011,109a39.66,39.66,0,1,0,54.58,0Z"/><polygon class="cls-1" points="2069.89 33.61 2099.18 31.1 2082.47 5.3 2069.89 33.61 2069.89 33.61"/><polygon class="cls-1" points="2016.02 40.54 2016.22 41.01 2015.75 40.97 2038.19 110.38 2059.76 40.95 2059.07 41.01 2059.28 40.54 2016.02 40.54 2016.02 40.54"/><polygon class="cls-1" points="1997.96 0 2011.97 33.78 2063.49 33.78 2078.5 0 1997.96 0 1997.96 0"/><polygon class="cls-1" points="2008.44 40.64 1976.71 37.83 1995.28 82.38 2033.2 117.22 2008.44 40.64 2008.44 40.64"/><polygon class="cls-1" points="2067.03 40.64 2043.2 117.32 2081.26 82.38 2099.79 37.83 2067.03 40.64 2067.03 40.64"/><polygon class="cls-1" points="2005.71 33.61 1993.98 5.36 1977.32 31.11 2005.71 33.61 2005.71 33.61"/></g></g></svg>